<?xml version="1.0" encoding="UTF-8" standalone="yes"?>
<svg version="1.2" width="500" height="500" baseProfile="tiny-ps" xmlns="http://www.w3.org/2000/svg">
  <title>bimi-svg-tiny-12-ps</title>
  <path d="M0 0 C12.05664478 10.58793223 23.08317853 21.92566164 32.49853516 34.9296875 C32.9397168 35.53184082 33.38089844 36.13399414 33.83544922 36.75439453 C70.52545157 87.17347396 86.61694059 149.97490653 77.53759766 211.83984375 C71.65011874 247.89626281 58.67322362 282.04484349 37.49853516 311.9296875 C37.07765625 312.52716797 36.65677734 313.12464844 36.22314453 313.74023438 C28.96086706 323.97391579 20.94610187 333.21173122 12.18945312 342.19189453 C10.7175851 343.70456514 9.2645522 345.23551808 7.81494141 346.76953125 C1.27052451 353.5718562 -5.98408311 359.26084226 -13.50146484 364.9296875 C-14.42958984 365.64125 -15.35771484 366.3528125 -16.31396484 367.0859375 C-23.70134115 372.62646973 -31.50639006 377.33488795 -39.50146484 381.9296875 C-40.62810547 382.58839844 -41.75474609 383.24710937 -42.91552734 383.92578125 C-97.29450515 414.42956451 -162.55055255 419.33855487 -222.07958984 402.94555664 C-268.04415989 389.59637052 -309.95775316 361.61983277 -339.50146484 323.9296875 C-340.29166016 322.95644531 -341.08185547 321.98320312 -341.89599609 320.98046875 C-379.77097387 273.44289822 -395.55967513 211.14934757 -389.72802734 151.11328125 C-384.61534785 106.63296966 -367.45632768 64.86613227 -339.50146484 29.9296875 C-339.06012207 29.37265137 -338.6187793 28.81561523 -338.1640625 28.24169922 C-327.46677404 14.83491342 -315.21281859 2.24890946 -301.50146484 -8.0703125 C-300.88142578 -8.54500977 -300.26138672 -9.01970703 -299.62255859 -9.50878906 C-264.92491001 -35.95998511 -224.00401108 -52.66256552 -180.50146484 -57.0703125 C-179.31593018 -57.19950073 -179.31593018 -57.19950073 -178.10644531 -57.33129883 C-113.18469843 -63.94598961 -49.16483483 -42.32534429 0 0 Z " fill="#4E42BA" transform="translate(405.50146484375,73.0703125)"/>
  <path d="M0 0 C12.05664478 10.58793223 23.08317853 21.92566164 32.49853516 34.9296875 C32.9397168 35.53184082 33.38089844 36.13399414 33.83544922 36.75439453 C70.52545157 87.17347396 86.61694059 149.97490653 77.53759766 211.83984375 C71.65011874 247.89626281 58.67322362 282.04484349 37.49853516 311.9296875 C37.07765625 312.52716797 36.65677734 313.12464844 36.22314453 313.74023438 C28.96086706 323.97391579 20.94610187 333.21173122 12.18945312 342.19189453 C10.7175851 343.70456514 9.2645522 345.23551808 7.81494141 346.76953125 C1.27052451 353.5718562 -5.98408311 359.26084226 -13.50146484 364.9296875 C-14.42958984 365.64125 -15.35771484 366.3528125 -16.31396484 367.0859375 C-23.70134115 372.62646973 -31.50639006 377.33488795 -39.50146484 381.9296875 C-40.62810547 382.58839844 -41.75474609 383.24710937 -42.91552734 383.92578125 C-97.29450515 414.42956451 -162.55055255 419.33855487 -222.07958984 402.94555664 C-268.04415989 389.59637052 -309.95775316 361.61983277 -339.50146484 323.9296875 C-340.29166016 322.95644531 -341.08185547 321.98320312 -341.89599609 320.98046875 C-379.77097387 273.44289822 -395.55967513 211.14934757 -389.72802734 151.11328125 C-384.61534785 106.63296966 -367.45632768 64.86613227 -339.50146484 29.9296875 C-339.06012207 29.37265137 -338.6187793 28.81561523 -338.1640625 28.24169922 C-327.46677404 14.83491342 -315.21281859 2.24890946 -301.50146484 -8.0703125 C-300.88142578 -8.54500977 -300.26138672 -9.01970703 -299.62255859 -9.50878906 C-264.92491001 -35.95998511 -224.00401108 -52.66256552 -180.50146484 -57.0703125 C-179.31593018 -57.19950073 -179.31593018 -57.19950073 -178.10644531 -57.33129883 C-113.18469843 -63.94598961 -49.16483483 -42.32534429 0 0 Z M-256.49853516 26.40429688 C-258.63521188 26.96477083 -260.78028393 27.47342453 -262.93115234 27.9765625 C-294.80716379 35.60229039 -330.13571678 51.83234848 -348.81396484 80.07421875 C-354.60602748 89.87513955 -359.3865927 99.95347138 -362.50146484 110.9296875 C-362.71416016 111.64382812 -362.92685547 112.35796875 -363.14599609 113.09375 C-373.17639969 149.31866083 -362.33149811 194.19797779 -344.62646484 226.4296875 C-340.248246 234.15068994 -335.1737871 241.11904208 -329.50146484 247.9296875 C-328.90849609 248.67476562 -328.31552734 249.41984375 -327.70458984 250.1875 C-314.64636016 266.04392176 -293.8104889 278.21411264 -274.12646484 283.8046875 C-271.18529984 284.83119426 -269.88187136 285.34736433 -268.16943359 287.96875 C-265.63581604 295.25723886 -264.83165848 304.80358966 -267.81396484 312.0546875 C-270.56614286 316.83584347 -274.99647345 320.28435711 -279.13818359 323.828125 C-281.89013261 326.27531272 -282.40251307 327.05891187 -282.81396484 330.6796875 C-282.40216118 334.96244559 -280.54347697 337.88767537 -277.50146484 340.9296875 C-267.98663224 341.58328234 -259.61949395 340.79218108 -250.50146484 337.9296875 C-249.05707031 337.51203125 -249.05707031 337.51203125 -247.58349609 337.0859375 C-227.39403176 330.89841342 -211.09868944 318.92143168 -196.50146484 303.9296875 C-195.92525391 303.36378906 -195.34904297 302.79789062 -194.75537109 302.21484375 C-194.13533203 301.60511719 -193.51529297 300.99539063 -192.87646484 300.3671875 C-192.02181641 299.52994141 -192.02181641 299.52994141 -191.14990234 298.67578125 C-189.40539726 296.98365373 -189.40539726 296.98365373 -188.34521484 294.7421875 C-185.33244384 291.78048041 -181.62387709 292.47032021 -177.62646484 292.4921875 C-165.47771536 292.25567386 -153.50300118 290.99133646 -141.43896484 289.6171875 C-140.45447357 289.50511963 -139.4699823 289.39305176 -138.45565796 289.27758789 C-131.80176666 288.51556582 -125.15086366 287.72990259 -118.50146484 286.9296875 C-117.74768555 286.83925171 -116.99390625 286.74881592 -116.21728516 286.65563965 C-43.82755159 279.21369316 -43.82755159 279.21369316 18.49853516 244.9296875 C19.12630859 244.3934375 19.75408203 243.8571875 20.40087891 243.3046875 C33.39702928 231.516796 41.37670361 211.9968836 47.49853516 195.9296875 C47.90716797 194.88683594 48.31580078 193.84398437 48.73681641 192.76953125 C55.21293521 174.98526691 58.28176027 155.81720348 58.49853516 136.9296875 C58.51754883 136.08519043 58.5365625 135.24069336 58.55615234 134.37060547 C59.17026513 106.58955236 58.060127 77.48986669 37.88745117 56.17553711 C20.72777441 38.85999448 -3.29150885 29.92202214 -26.50146484 23.9296875 C-28.27046143 23.47130493 -28.27046143 23.47130493 -30.07519531 23.00366211 C-40.66933745 20.34345512 -51.30767065 18.60101082 -62.12402344 17.11938477 C-64.895592 16.7395663 -67.66535952 16.34827691 -70.43505859 15.95507812 C-72.23574745 15.70246552 -74.03652577 15.45048965 -75.83740234 15.19921875 C-76.64599701 15.08568558 -77.45459167 14.9721524 -78.28768921 14.85517883 C-88.73808162 13.42919923 -99.02694089 12.77281048 -109.57568359 12.76171875 C-111.42070969 12.75536659 -111.42070969 12.75536659 -113.30300903 12.74888611 C-117.26501573 12.73904279 -121.22695373 12.73870243 -125.18896484 12.7421875 C-126.2007461 12.74258781 -126.2007461 12.74258781 -127.23296738 12.74299622 C-170.57158648 12.76458268 -214.44226437 15.02160625 -256.49853516 26.40429688 Z " fill="#4D41BA" transform="translate(405.50146484375,73.0703125)"/>
  <path d="M0 0 C2.58052973 0.39064264 5.16126124 0.77995459 7.7421875 1.16796875 C22.15197264 3.41541705 36.15220598 6.40284064 50 11 C51.07894531 11.35747314 51.07894531 11.35747314 52.1796875 11.72216797 C75.56291523 19.63791211 98.83538434 31.52587256 111 54 C112.89538799 57.92983978 114.51936937 61.89685017 116 66 C116.29777344 66.81339844 116.59554688 67.62679687 116.90234375 68.46484375 C122.07618199 84.75857313 121.38033225 103.10744653 121 120 C120.99129883 120.75812988 120.98259766 121.51625977 120.97363281 122.29736328 C120.49676206 158.92597035 107.81857238 201.8061531 81 228 C68.43691733 239.9442116 52.43592173 247.86441985 36 253 C35.15195801 253.26876953 34.30391602 253.53753906 33.43017578 253.81445312 C5.49081027 262.46270376 -24.0888589 266.61237962 -53.11083984 269.68505859 C-57.27695962 270.13919874 -61.43493189 270.65518869 -65.59423828 271.16748047 C-74.09746857 272.21119361 -82.60577919 273.2202813 -91.125 274.125 C-91.91680664 274.21354248 -92.70861328 274.30208496 -93.52441406 274.39331055 C-98.03471726 274.85481935 -102.4303087 275.01778249 -106.96484375 274.921875 C-117.99776539 274.30194011 -117.99776539 274.30194011 -127.72265625 278.5546875 C-130.55378235 281.41945874 -132.74330579 284.66989693 -135 288 C-136.62419949 289.70807833 -138.28989489 291.37793463 -140 293 C-141.08087891 294.05960937 -141.08087891 294.05960937 -142.18359375 295.140625 C-159.561862 311.40451556 -183.44914259 323.75241083 -207.5625 324.375 C-208.86316406 324.42398437 -210.16382813 324.47296875 -211.50390625 324.5234375 C-215 324 -215 324 -217.40234375 321.6015625 C-219.7898282 317.71387388 -220.53350761 315.62373259 -220 311 C-217.38633602 307.16118103 -214.43968934 304.50895909 -210.875 301.5625 C-206.38762905 297.66780068 -204.32633506 294.29132216 -203.7265625 288.2421875 C-203.50630043 281.61738206 -203.78483465 274.94223457 -207 269 C-209.84071452 266.85045959 -212.86811643 265.9124241 -216.25 264.875 C-218.07007435 264.23191798 -219.88778028 263.5820957 -221.703125 262.92578125 C-222.60224609 262.60818848 -223.50136719 262.2905957 -224.42773438 261.96337891 C-235.38242616 257.86056818 -244.95762207 251.31871738 -254 244 C-254.67675781 243.46503906 -255.35351562 242.93007813 -256.05078125 242.37890625 C-260.55768306 238.69144113 -264.3275355 234.50816102 -268 230 C-268.68964844 229.15953125 -269.37929688 228.3190625 -270.08984375 227.453125 C-292.39193639 199.07576987 -303.47972533 162.29379475 -303.25 126.4375 C-303.26160156 124.62088867 -303.26160156 124.62088867 -303.2734375 122.76757812 C-303.20946933 92.91043528 -292.72048967 67.78482125 -271.7265625 46.71875 C-249.00031594 25.27604561 -218.02536638 14.36816021 -188 8 C-187.18450684 7.8237207 -186.36901367 7.64744141 -185.52880859 7.46582031 C-171.44502037 4.4407713 -157.24703006 2.1099339 -143 0 C-142.25782227 -0.11085938 -141.51564453 -0.22171875 -140.75097656 -0.3359375 C-135.84469477 -1.04748057 -130.93583472 -1.55581317 -126 -2 C-124.57977539 -2.13535156 -124.57977539 -2.13535156 -123.13085938 -2.2734375 C-82.52539363 -5.96711232 -40.29252146 -6.65435464 0 0 Z M-267 52 C-267.84304688 52.72832031 -268.68609375 53.45664063 -269.5546875 54.20703125 C-285.27403565 68.86573134 -295.06174093 92.05069601 -296.17407227 113.33007812 C-296.23170609 116.8889047 -296.2240131 120.44093336 -296.1875 124 C-296.18685547 125.19367188 -296.18621094 126.38734375 -296.18554688 127.6171875 C-295.9956215 166.19314223 -282.59734872 203.85465744 -256 232 C-255.34128906 232.7115625 -254.68257812 233.423125 -254.00390625 234.15625 C-249.15313987 239.23149853 -243.90445523 243.2183984 -238 247 C-237.08347656 247.5878125 -236.16695312 248.175625 -235.22265625 248.78125 C-226.00550253 254.4228904 -216.18953959 258.63664792 -205.75 261.4375 C-202.30209642 262.55014431 -202.09858105 262.83781827 -200.0625 266.1875 C-199.711875 267.445625 -199.36125 268.70375 -199 270 C-198.608125 271.216875 -198.21625 272.43375 -197.8125 273.6875 C-195.62226144 283.28371469 -196.41230064 293.27142098 -201.06640625 302 C-203.24238806 305.33219657 -205.48257609 307.45214056 -208.8125 309.625 C-212.27857171 311.62880721 -212.27857171 311.62880721 -212.4375 314.8125 C-212.2209375 315.8953125 -212.2209375 315.8953125 -212 317 C-205.59228658 317.20341947 -200.16621619 316.70535819 -194 315 C-192.83597656 314.69320313 -191.67195313 314.38640625 -190.47265625 314.0703125 C-166.12603319 307.30091266 -146.05548846 292.07317956 -130.1875 272.609375 C-128 270 -128 270 -126 269 C-124.42399717 268.89036382 -122.84380162 268.83862184 -121.26416016 268.81542969 C-103.84578947 268.42619432 -86.74659061 266.69493135 -69.48486328 264.51428223 C-66.68869219 264.16403284 -63.89113315 263.82572126 -61.09348965 263.48746872 C-46.26507825 261.69142756 -31.47540369 259.69612377 -16.71484375 257.40625 C-14.7800264 257.10790253 -14.7800264 257.10790253 -12.80612183 256.80352783 C22.20297665 251.25729937 62.26400015 242.52832897 85 213 C98.47869462 193.7613285 106.6389704 170.91650714 111 148 C111.15243164 147.23961426 111.30486328 146.47922852 111.46191406 145.69580078 C115.75558218 123.69422927 116.71151063 97.81649983 111 76 C110.70996094 74.77023438 110.41992188 73.54046875 110.12109375 72.2734375 C105.69164881 54.96338909 95.50185265 41.20904064 80.15527344 31.87841797 C70.2032753 26.10819618 59.90925198 21.60788942 49 18 C48.35691895 17.7839209 47.71383789 17.5678418 47.05126953 17.34521484 C28.83242913 11.32083948 9.85874695 8.21128401 -9.125 5.75 C-11.00759521 5.50527954 -11.00759521 5.50527954 -12.92822266 5.25561523 C-29.93553051 3.14959629 -46.73754163 2.81362104 -63.85595703 2.81469727 C-67.69966002 2.81252841 -71.54306694 2.7943698 -75.38671875 2.77539062 C-138.5083224 2.63159469 -217.08538758 8.84769862 -267 52 Z " fill="#F9F8FC" transform="translate(343,90)"/>
  <path d="M0 0 C1.65 0 3.3 0 5 0 C6.87824891 1.87824891 6.39102397 5.03935276 6.5625 7.5625 C6.64628906 8.76003906 6.73007812 9.95757812 6.81640625 11.19140625 C6.87699219 12.11824219 6.93757813 13.04507813 7 14 C8.10214844 13.27103516 8.10214844 13.27103516 9.2265625 12.52734375 C13.24629754 10.31365868 16.51945162 10.30950453 21 11 C25.87663158 12.74433361 28.73639266 15.35294728 31 20 C31.86295756 26.28605362 31.92123849 32.77168201 28 38 C24.32659249 41.48973714 21.36771774 42.30093333 16.4375 42.5 C12.56629155 42.37342098 11.18160575 42.1139487 7.8125 40 C7.214375 39.34 6.61625 38.68 6 38 C5.67 39.32 5.34 40.64 5 42 C3.35 42 1.7 42 0 42 C0 28.14 0 14.28 0 0 Z " fill="#F2F1FA" transform="translate(285,215)"/>
  <path d="M0 0 C1.65 0 3.3 0 5 0 C5 13.86 5 27.72 5 42 C3.35 42 1.7 42 0 42 C-0.33 40.68 -0.66 39.36 -1 38 C-1.598125 38.66 -2.19625 39.32 -2.8125 40 C-7.46864289 42.92150142 -11.63971463 42.6467916 -17 42 C-21.10793442 40.51415138 -23.24381448 38.05449339 -25.26953125 34.16015625 C-27.18769628 28.48772171 -26.93017333 22.89479753 -24.3125 17.5625 C-23.549375 16.716875 -22.78625 15.87125 -22 15 C-21.319375 14.21625 -20.63875 13.4325 -19.9375 12.625 C-15.51195286 10.17682499 -10.94066469 10.03458276 -6 11 C-4.35 12.32 -2.7 13.64 -1 15 C-0.67 10.05 -0.34 5.1 0 0 Z " fill="#F9F8FC" transform="translate(382,215)"/>
  <path d="M0 0 C2.5 1.5625 2.5 1.5625 3.5 2.5625 C3.83 1.2425 4.16 -0.0775 4.5 -1.4375 C6.15 -1.4375 7.8 -1.4375 9.5 -1.4375 C9.5 8.7925 9.5 19.0225 9.5 29.5625 C7.85 29.5625 6.2 29.5625 4.5 29.5625 C4.17 28.2425 3.84 26.9225 3.5 25.5625 C2.63375 26.5525 2.63375 26.5525 1.75 27.5625 C-3.16615007 30.58782312 -7.8703385 30.32769671 -13.5 29.5625 C-17.91749625 27.2185224 -19.90442438 24.26524919 -21.5 19.5625 C-22.13665524 13.91024373 -22.27290653 9.19419157 -19.8125 4 C-13.98072124 -2.14701005 -7.82434604 -3.2135707 0 0 Z " fill="#F5F5FB" transform="translate(160.5,227.4375)"/>
  <path d="M0 0 C6.72220689 -0.32820902 12.0948665 -0.46605662 18 3 C18.33 3.99 18.66 4.98 19 6 C20.9490625 6.1546875 20.9490625 6.1546875 22.9375 6.3125 C40.01390397 8.3214887 56.5011863 18.59338521 68 31 C68.59167969 31.598125 69.18335938 32.19625 69.79296875 32.8125 C77.14824281 40.55189863 86.48805829 52.97957985 87.1875 63.9375 C87.125625 64.618125 87.06375 65.29875 87 66 C85.35 66.33 83.7 66.66 82 67 C79.02060755 63.42288993 77.22926204 59.48352006 75.25 55.3125 C72.1222051 48.91966948 68.81976644 43.29249407 64 38 C63.32324219 37.24332031 62.64648438 36.48664063 61.94921875 35.70703125 C51.20403451 24.31293713 37.73064363 17.99705489 22.75 14.08984375 C20 13 20 13 18.625 10.9453125 C16.45169445 8.34361499 14.46080018 8.38221618 11.1953125 8.08398438 C10.47085937 8.03564453 9.74640625 7.98730469 9 7.9375 C1.5104225 7.39777066 1.5104225 7.39777066 -1 5.44140625 C-1.33 4.96574219 -1.66 4.49007812 -2 4 C-1.34 2.68 -0.68 1.36 0 0 Z " fill="#F7F7FC" transform="translate(353,110)"/>
  <path d="M0 0 C1.98 0 3.96 0 6 0 C6 0.99 6 1.98 6 3 C6.83724609 2.26910156 6.83724609 2.26910156 7.69140625 1.5234375 C11.54607659 -1.02025359 15.53467373 -0.55002398 20 0 C23.02286884 1.38548155 24.66871425 2.66871425 27 5 C27.61875 4.360625 28.2375 3.72125 28.875 3.0625 C32.36966064 -0.3293765 34.97335239 -0.33816269 39.67578125 -0.28515625 C43.25079353 0.1534587 45.3331253 1.65835392 48 4 C50.03298081 7.1908546 50.23693426 9.67591644 50.1953125 13.421875 C50.18886719 14.44667969 50.18242187 15.47148437 50.17578125 16.52734375 C50.15902344 17.59082031 50.14226562 18.65429688 50.125 19.75 C50.11597656 20.82894531 50.10695313 21.90789062 50.09765625 23.01953125 C50.07411305 25.67991278 50.04122799 28.33984336 50 31 C48.35 31 46.7 31 45 31 C44.99589111 30.39003174 44.99178223 29.78006348 44.98754883 29.15161133 C44.95452425 26.37094208 44.88387432 23.59243843 44.8125 20.8125 C44.80669922 19.85279297 44.80089844 18.89308594 44.79492188 17.90429688 C44.64749289 13.17018845 44.54423254 10.72835102 41.64453125 6.84765625 C38.44568525 4.61271658 36.825923 4.50096656 33 5 C32.01 5.33 31.02 5.66 30 6 C29.0268319 8.9195043 28.8070454 11.05444951 28.68359375 14.10546875 C28.64169922 15.08837891 28.59980469 16.07128906 28.55664062 17.08398438 C28.51732422 18.10814453 28.47800781 19.13230469 28.4375 20.1875 C28.39431641 21.22326172 28.35113281 22.25902344 28.30664062 23.32617188 C28.20055634 25.8839819 28.09849854 28.44188845 28 31 C26.35 31 24.7 31 23 31 C22.99589111 30.39003174 22.99178223 29.78006348 22.98754883 29.15161133 C22.95452425 26.37094208 22.88387432 23.59243843 22.8125 20.8125 C22.80669922 19.85279297 22.80089844 18.89308594 22.79492188 17.90429688 C22.64751779 13.17098793 22.55014406 10.73231097 19.640625 6.859375 C17.10508995 4.79845851 17.10508995 4.79845851 13.9375 4.4375 C10.11550987 5.16937045 9.24100988 5.79117453 7 9 C6.35458503 12.74141977 6.30291164 16.45960216 6.25 20.25 C6.22035156 21.28125 6.19070312 22.3125 6.16015625 23.375 C6.08955222 25.91674495 6.03680991 28.45757783 6 31 C4.02 31 2.04 31 0 31 C0 20.77 0 10.54 0 0 Z " fill="#F3F2FA" transform="translate(227,226)"/>
  <path d="M0 0 C3.71194985 1.26481254 6.32501173 3.23791647 8.9375 6.1875 C10 9 10 9 10 18 C2.08 18 -5.84 18 -14 18 C-13.34 20.31 -12.68 22.62 -12 25 C-8.29382618 26.23539127 -4.84488667 26.71005766 -1 26 C1.68767578 23.56249975 1.68767578 23.56249975 4 21 C6.8125 20.6875 6.8125 20.6875 9 21 C8.70179167 24.57849992 8.25754642 25.76226484 5.5625 28.25 C0.30828447 31.83824475 -4.7507401 31.85398571 -11 31 C-15.3220326 28.72407546 -18.18865496 25.53257504 -20 21 C-20.7500384 15.09710037 -20.45404174 10.00240527 -17 5 C-11.43361532 -0.02332276 -7.36770213 -0.79412358 0 0 Z " fill="#F0EFF9" transform="translate(341,226)"/>
  <path d="M0 0 C1.98 0 3.96 0 6 0 C9.27232226 7.04160934 11.98184415 14.2143987 14.57421875 21.53198242 C15.25798212 23.4600074 15.94896407 25.38534278 16.640625 27.31054688 C20 36.74379185 20 36.74379185 20 39 C18.35 39 16.7 39 15 39 C13.515 34.545 13.515 34.545 12 30 C3.585 30.495 3.585 30.495 -5 31 C-5.99 33.64 -6.98 36.28 -8 39 C-9.98 39 -11.96 39 -14 39 C-11.70870967 30.84065639 -8.84482081 22.93378642 -5.875 15 C-5.41996094 13.77410156 -4.96492188 12.54820312 -4.49609375 11.28515625 C-1.15094021 2.30188041 -1.15094021 2.30188041 0 0 Z " fill="#F5F5FB" transform="translate(407,218)"/>
  <path d="M0 0 C0.495 2.475 0.495 2.475 1 5 C-15.67105223 15.61430304 -39.47513956 16.9967842 -58.75 18.875 C-59.76546906 18.97628708 -59.76546906 18.97628708 -60.80145264 19.07962036 C-72.92722068 20.26524691 -72.92722068 20.26524691 -78 19 C-78.33 17.68 -78.66 16.36 -79 15 C-74.99779331 12.19472816 -71.9844961 11.54133217 -67.13671875 11.2265625 C-65.77226731 11.12615094 -64.40784793 11.0253031 -63.04345703 10.92407227 C-62.33239807 10.87582306 -61.62133911 10.82757385 -60.88873291 10.77786255 C-49.67660124 9.99924661 -38.63606976 8.8973989 -27.625 6.5625 C-26.23994263 6.27270264 -26.23994263 6.27270264 -24.8269043 5.97705078 C-19.15263229 4.70245956 -13.80792285 2.92819258 -8.39282227 0.80932617 C-5.51415772 -0.16432682 -3.01653814 -0.32611223 0 0 Z " fill="#F9F8FC" transform="translate(358,325)"/>
  <path d="M0 0 C4.63308978 1.74176307 8.57232103 4.59983187 11 9 C11 9.66 11 10.32 11 11 C8.3125 11.3125 8.3125 11.3125 5 11 C2.375 8.5625 2.375 8.5625 0 6 C-1.86196946 5.07606836 -1.86196946 5.07606836 -4 5 C-5.11375 4.896875 -6.2275 4.79375 -7.375 4.6875 C-12.60711988 5.13854482 -15.39691457 7.23660602 -18.875 11.0625 C-20.64630636 15.68757772 -20.64542523 20.11628243 -20 25 C-17.86390823 29.43041256 -15.59601298 32.16159481 -11 34 C-7.85739889 34.58590868 -5.13093459 34.69516448 -2 34 C0.00106114 32.59966309 1.63047045 31.05676306 3.359375 29.3359375 C5 28 5 28 8.4375 27.625 C9.283125 27.74875 10.12875 27.8725 11 28 C8.92370897 33.07537807 6.77026993 35.31672316 2 38 C-3.35405587 39.78468529 -9.79640194 40.04514547 -15.203125 38.28125 C-20.83214363 35.24647474 -23.98703954 30.9360919 -26 25 C-26.86625322 17.60662946 -26.61208773 11.94716576 -22 6 C-15.21302518 -0.63115141 -9.29010471 -0.9157825 0 0 Z " fill="#F6F6FB" transform="translate(86,218)"/>
  <path d="M0 0 C1.65 0 3.3 0 5 0 C5.33 4.62 5.66 9.24 6 14 C7.32 13.01 8.64 12.02 10 11 C14.21186855 10.23146585 17.95814534 10.54701971 21.875 12.25 C24.93186818 14.76742086 26.82409926 16.62759596 27.34057617 20.65722656 C27.32486572 21.64174805 27.30915527 22.62626953 27.29296875 23.640625 C27.28330078 24.71054688 27.27363281 25.78046875 27.26367188 26.8828125 C27.23853516 27.99398437 27.21339844 29.10515625 27.1875 30.25 C27.16719727 31.93996094 27.16719727 31.93996094 27.14648438 33.6640625 C27.11115645 36.44319264 27.0618252 39.22135363 27 42 C25.35 42 23.7 42 22 42 C21.98541748 41.34926514 21.97083496 40.69853027 21.95581055 40.02807617 C21.88135451 37.08061694 21.78468734 34.13429358 21.6875 31.1875 C21.66494141 30.16333984 21.64238281 29.13917969 21.61914062 28.08398438 C21.5659668 26.60961914 21.5659668 26.60961914 21.51171875 25.10546875 C21.48553467 24.19949951 21.45935059 23.29353027 21.43237305 22.36010742 C20.92379115 19.58401416 20.19556906 18.71372157 18 17 C15.20129973 15.60064987 13.09501208 15.74734595 10 16 C7.44050454 17.85342775 7.02081202 18.93756393 6 22 C5.8535286 23.55266653 5.75305926 25.10995662 5.68359375 26.66796875 C5.64169922 27.56064453 5.59980469 28.45332031 5.55664062 29.37304688 C5.49766602 30.76620117 5.49766602 30.76620117 5.4375 32.1875 C5.37272461 33.59805664 5.37272461 33.59805664 5.30664062 35.03710938 C5.20061335 37.35792854 5.09854971 39.67885325 5 42 C3.35 42 1.7 42 0 42 C0 28.14 0 14.28 0 0 Z " fill="#F8F8FC" transform="translate(105,215)"/>
  <path d="M0 0 C3.00685874 1.61907778 5.2581079 3.05577368 7.375 5.75 C8.87706167 11.15742201 8.77591067 14.62338429 6.0625 19.4375 C2.59475368 22.33908365 0.5798598 23.02118004 -3.84765625 23.2421875 C-7.17383385 22.86791706 -8.78336481 21.41814748 -11 19 C-13.46986894 15.29519659 -13.67432448 12.29780299 -13 8 C-9.80236302 2.04577942 -6.94083476 -0.81656879 0 0 Z " fill="#5247BC" transform="translate(374,230)"/>
  <path d="M0 0 C6.93 0 13.86 0 21 0 C21 1.32 21 2.64 21 4 C15.72 4 10.44 4 5 4 C5 8.29 5 12.58 5 17 C9.62 17 14.24 17 19 17 C19 18.32 19 19.64 19 21 C14.38 21 9.76 21 5 21 C5 25.62 5 30.24 5 35 C10.28 35 15.56 35 21 35 C21 36.32 21 37.64 21 39 C14.07 39 7.14 39 0 39 C0 26.13 0 13.26 0 0 Z " fill="#FCFCFE" transform="translate(199,218)"/>
  <path d="M0 0 C2.92937654 1.81310142 5.43647949 3.87295899 7 7 C7.36950374 12.54255615 7.26650639 16.26919765 4 21 C0.40374383 23.13831448 -2.87023437 23.5162207 -7 23 C-9.69990662 21.20006226 -11.5418865 19.916227 -13 17 C-13.61766523 11.52042702 -14.04431644 7.37410058 -10.625 2.875 C-6.79461001 0.13900715 -4.74364047 -0.54734313 0 0 Z " fill="#5146BB" transform="translate(304,230)"/>
  <path d="M0 0 C3.49406769 1.66762322 4.82670681 2.74006022 7 6 C7.68869056 11.17318721 7.84213522 15.59644131 5.125 20.125 C2.41062662 22.52003534 1.39592521 22.95431632 -2.25 23.375 C-7.21442386 22.87855761 -8.55704915 21.52492587 -12 18 C-13.24300105 14.27099684 -13.6711674 10.86650786 -13 7 C-9.75559076 1.35860184 -6.40800137 -0.50258834 0 0 Z " fill="#5145BB" transform="translate(157,230)"/>
  <path d="M0 0 C1.98 0 3.96 0 6 0 C6 2.64 6 5.28 6 8 C8.64 8 11.28 8 14 8 C14 9.65 14 11.3 14 13 C11.36 13 8.72 13 6 13 C6.33 19.93 6.66 26.86 7 34 C8.98 34.33 10.96 34.66 13 35 C13 36.32 13 37.64 13 39 C5.67973856 39.36601307 5.67973856 39.36601307 2.5625 37.6875 C-0.10062055 34.81132981 -0.12144069 32.0661876 -0.09765625 28.33203125 C-0.09443359 27.43935547 -0.09121094 26.54667969 -0.08789062 25.62695312 C-0.07951172 24.69818359 -0.07113281 23.76941406 -0.0625 22.8125 C-0.05798828 21.87212891 -0.05347656 20.93175781 -0.04882812 19.96289062 C-0.03704626 17.64186288 -0.02059558 15.32096356 0 13 C-1.32 13 -2.64 13 -4 13 C-4 11.35 -4 9.7 -4 8 C-2.68 8 -1.36 8 0 8 C0 5.36 0 2.72 0 0 Z " fill="#E8E7F6" transform="translate(179,218)"/>
  <path d="M0 0 C1.65 0 3.3 0 5 0 C5 12.87 5 25.74 5 39 C3.35 39 1.7 39 0 39 C0 26.13 0 13.26 0 0 Z " fill="#F5F4FB" transform="translate(433,218)"/>
  <path d="M0 0 C9 0 9 0 11.5625 1.625 C13.42583125 4.70354728 13.5170119 6.45477556 13 10 C11.875 12.375 11.875 12.375 10 14 C6.8125 14.25 6.8125 14.25 4 14 C3.67 15.65 3.34 17.3 3 19 C2.01 19 1.02 19 0 19 C0 12.73 0 6.46 0 0 Z " fill="#DBD9F1" transform="translate(213,275)"/>
  <path d="M0 0 C3.375 0.9375 3.375 0.9375 5.375 3.9375 C5.72245351 7.20356297 5.65873354 9.30327208 4.3125 12.3125 C2.375 13.9375 2.375 13.9375 -1.125 14.4375 C-4.625 13.9375 -4.625 13.9375 -6.5625 12.3125 C-7.94065201 9.23192492 -8.11246608 7.28012452 -7.625 3.9375 C-5.31085172 0.32742869 -4.32918251 -0.07464108 0 0 Z " fill="#DEDCF2" transform="translate(235.625,275.0625)"/>
  <path d="M0 0 C2.4375 0.4375 2.4375 0.4375 4.25 1.4375 C6.14983631 4.63722431 5.98054262 7.81721584 5.4375 11.4375 C4.3125 13.4375 4.3125 13.4375 2.4375 14.4375 C-0.5625 14.875 -0.5625 14.875 -3.5625 14.4375 C-6.12252346 12.218813 -6.51173191 10.78562407 -7 7.4375 C-6.5625 4.4375 -6.5625 4.4375 -4.875 2.0625 C-2.5625 0.4375 -2.5625 0.4375 0 0 Z " fill="#ECEBF7" transform="translate(381.5625,274.5625)"/>
  <path d="M0 0 C2.97 0 5.94 0 9 0 C9 0.66 9 1.32 9 2 C9.99 1.34 10.98 0.68 12 0 C14.5625 -0.3125 14.5625 -0.3125 17 0 C19.28062828 3.42094242 19.21925007 4.68187222 19.125 8.6875 C19.10695312 9.68136719 19.08890625 10.67523438 19.0703125 11.69921875 C19.04710937 12.45847656 19.02390625 13.21773438 19 14 C18.01 14 17.02 14 16 14 C15.67 10.37 15.34 6.74 15 3 C14.01 3 13.02 3 12 3 C11.67 6.63 11.34 10.26 11 14 C10.01 14 9.02 14 8 14 C7.67 10.37 7.34 6.74 7 3 C6.01 3 5.02 3 4 3 C3.67 6.63 3.34 10.26 3 14 C2.01 14 1.02 14 0 14 C0 9.38 0 4.76 0 0 Z " fill="#D8D6F0" transform="translate(191,275)"/>
  <path d="M0 0 C2.14642449 3.21963674 3.35881354 6.44429859 4.625 10.0625 C4.85445313 10.69994141 5.08390625 11.33738281 5.3203125 11.99414062 C7 16.738258 7 16.738258 7 19 C2.38 19 -2.24 19 -7 19 C-6.02443642 16.01960852 -5.04474086 13.04069025 -4.0625 10.0625 C-3.78470703 9.21236328 -3.50691406 8.36222656 -3.22070312 7.48632812 C-2.95322266 6.67744141 -2.68574219 5.86855469 -2.41015625 5.03515625 C-2.16402588 4.2862915 -1.91789551 3.53742676 -1.66430664 2.76586914 C-1 1 -1 1 0 0 Z " fill="#574CBE" transform="translate(410,225)"/>
  <path d="M0 0 C2.8125 1.125 2.8125 1.125 5 3 C5.33 4.98 5.66 6.96 6 9 C0.06 9 -5.88 9 -12 9 C-11 4 -11 4 -8.8125 1.6875 C-5.46654559 -0.32007265 -3.84001776 -0.56000259 0 0 Z " fill="#5246BB" transform="translate(339,230)"/>
  <path d="M0 0 C1.05960937 0.00676758 1.05960937 0.00676758 2.140625 0.01367188 C3.88545275 0.02546125 5.630237 0.04339676 7.375 0.0625 C7.705 1.7125 8.035 3.3625 8.375 5.0625 C4.78564452 7.45540365 2.58449848 7.51209059 -1.6875 7.8125 C-3.56115234 7.95945312 -3.56115234 7.95945312 -5.47265625 8.109375 C-8.625 8.0625 -8.625 8.0625 -10.625 6.0625 C-10.375 3.5 -10.375 3.5 -9.625 1.0625 C-6.55966836 -0.47016582 -3.35745728 -0.04026471 0 0 Z " fill="#F3F2FA" transform="translate(262.625,339.9375)"/>
  <path d="M0 0 C0.99 0 1.98 0 3 0 C4.0063655 2.43504509 5.00526413 4.87270864 6 7.3125 C6.28617188 8.00279297 6.57234375 8.69308594 6.8671875 9.40429688 C8.08910744 12.41545674 9 14.71886984 9 18 C8.01 17.67 7.02 17.34 6 17 C5.67 16.01 5.34 15.02 5 14 C2.36 13.67 -0.28 13.34 -3 13 C-3.33 14.65 -3.66 16.3 -4 18 C-4.66 18 -5.32 18 -6 18 C-5.41347648 13.51006131 -4.2356462 9.77456816 -2.4375 5.625 C-1.98246094 4.56539063 -1.52742188 3.50578125 -1.05859375 2.4140625 C-0.70925781 1.61742187 -0.35992187 0.82078125 0 0 Z " fill="#E9E7F6" transform="translate(89,271)"/>
  <path d="M0 0 C1.875 1.1875 1.875 1.1875 3 3 C3 4.65 3 6.3 3 8 C-0.3 8 -3.6 8 -7 8 C-5.33045181 11.22404978 -5.33045181 11.22404978 -2.375 11.6875 C-1.199375 11.8421875 -1.199375 11.8421875 0 12 C0 11.34 0 10.68 0 10 C0.99 10 1.98 10 3 10 C2.34 11.32 1.68 12.64 1 14 C-5.30818278 14.35706695 -5.30818278 14.35706695 -7.9375 13 C-9.65701652 9.76326302 -9.53653931 6.57692871 -9 3 C-6.89283346 -0.74607384 -4.00604938 -0.50075617 0 0 Z " fill="#E8E6F6" transform="translate(414,275)"/>
  <path d="M0 0 C0.66 0 1.32 0 2 0 C2.99 2.97 3.98 5.94 5 9 C5.99 6.03 6.98 3.06 8 0 C8.66 0 9.32 0 10 0 C10.99 2.64 11.98 5.28 13 8 C13.99 5.36 14.98 2.72 16 0 C16.66 0 17.32 0 18 0 C17.71572583 1.58467728 17.42225182 3.1677057 17.125 4.75 C16.96257812 5.63171875 16.80015625 6.5134375 16.6328125 7.421875 C16.03203736 9.86947744 15.22002883 11.80599857 14 14 C13.34 14 12.68 14 12 14 C11.34 11.03 10.68 8.06 10 5 C9.34 5 8.68 5 8 5 C7.67 7.64 7.34 10.28 7 13 C5.68 13.33 4.36 13.66 3 14 C2.49528803 12.23050388 1.99639315 10.45934777 1.5 8.6875 C1.2215625 7.70136719 0.943125 6.71523438 0.65625 5.69921875 C0 3 0 3 0 0 Z " fill="#E3E1F4" transform="translate(243,275)"/>
  <path d="M0 0 C2.4375 0.4375 2.4375 0.4375 4.25 1.625 C5.4375 3.4375 5.4375 3.4375 5.4375 8.4375 C2.1375 8.4375 -1.1625 8.4375 -4.5625 8.4375 C-3.5725 9.9225 -3.5725 9.9225 -2.5625 11.4375 C0.54244126 11.75595551 2.45476077 11.43174641 5.4375 10.4375 C4.7775 11.7575 4.1175 13.0775 3.4375 14.4375 C-2.98460386 14.92218708 -2.98460386 14.92218708 -5.5 12.8125 C-6.87815201 9.73192492 -7.04996608 7.78012452 -6.5625 4.4375 C-4.55049381 1.60578758 -3.44178233 0.58762137 0 0 Z " fill="#EDECF8" transform="translate(269.5625,274.5625)"/>
  <path d="M0 0 C2 3 2 3 2 7 C-1.3 7 -4.6 7 -8 7 C-7.67 7.99 -7.34 8.98 -7 10 C-3.95613276 10.08226668 -1.92824652 9.97608217 1 9 C1 9.99 1 10.98 1 12 C-1.79870027 13.39935013 -3.90498792 13.25265405 -7 13 C-8.875 12 -8.875 12 -10 10 C-10.54135705 6.39095302 -10.62822841 3.2195022 -8.9375 -0.0625 C-5.76026699 -1.59987081 -3.32611047 -0.8466463 0 0 Z " fill="#EBE9F7" transform="translate(347,276)"/>
  <path d="M0 0 C2.875 -0.125 2.875 -0.125 6 0 C8 2 8 2 8.1953125 4.8203125 C8.16050781 6.45613281 8.16050781 6.45613281 8.125 8.125 C8.10695312 9.22070312 8.08890625 10.31640625 8.0703125 11.4453125 C8.04710937 12.28835938 8.02390625 13.13140625 8 14 C6.54207116 14.05399736 5.08357288 14.09279177 3.625 14.125 C2.81289062 14.14820313 2.00078125 14.17140625 1.1640625 14.1953125 C-1 14 -1 14 -3 12 C-2.44444444 7.44444444 -2.44444444 7.44444444 -1 6 C1.33297433 5.95907063 3.66705225 5.95758277 6 6 C5.67 5.01 5.34 4.02 5 3 C2.69 3.33 0.38 3.66 -2 4 C-1.34 2.68 -0.68 1.36 0 0 Z " fill="#E3E1F4" transform="translate(148,275)"/>
  <path d="M0 0 C3.63 0 7.26 0 11 0 C11 0.99 11 1.98 11 3 C8.03 3 5.06 3 2 3 C2 4.98 2 6.96 2 9 C4.64 9 7.28 9 10 9 C10 9.66 10 10.32 10 11 C7.36 11 4.72 11 2 11 C2 12.98 2 14.96 2 17 C4.97 17 7.94 17 11 17 C11 17.66 11 18.32 11 19 C7.37 19 3.74 19 0 19 C0 12.73 0 6.46 0 0 Z " fill="#EAE9F7" transform="translate(177,270)"/>
  <path d="M0 0 C4.62 0 9.24 0 14 0 C14 0.99 14 1.98 14 3 C12.02 3 10.04 3 8 3 C8 8.28 8 13.56 8 19 C7.01 19 6.02 19 5 19 C5 13.72 5 8.44 5 3 C3.35 3 1.7 3 0 3 C0 2.01 0 1.02 0 0 Z " fill="#D1CEED" transform="translate(114,270)"/>
  <path d="M0 0 C0.66 0 1.32 0 2 0 C2 1.98 2 3.96 2 6 C3.11375 5.79375 4.2275 5.5875 5.375 5.375 C6.57125 5.25125 7.7675 5.1275 9 5 C11 7 11 7 11.1953125 9.8203125 C11.16050781 11.45613281 11.16050781 11.45613281 11.125 13.125 C11.10695312 14.22070312 11.08890625 15.31640625 11.0703125 16.4453125 C11.03550781 17.70988281 11.03550781 17.70988281 11 19 C10.34 19 9.68 19 9 19 C8.67 15.7 8.34 12.4 8 9 C6.68 8.67 5.36 8.34 4 8 C2.33657163 9.66342837 2.63951903 11.7825709 2.4375 14.0625 C2.31181641 15.44115234 2.31181641 15.44115234 2.18359375 16.84765625 C2.12300781 17.55792969 2.06242188 18.26820313 2 19 C1.34 19 0.68 19 0 19 C0 12.73 0 6.46 0 0 Z " fill="#E9E7F6" transform="translate(131,270)"/>
  <path d="M0 0 C7.4457732 -0.36618557 7.4457732 -0.36618557 9.75 1.15625 C11.49814698 3.73476679 11.29627565 5.60552328 11.1875 8.6875 C11.16042969 9.68136719 11.13335937 10.67523438 11.10546875 11.69921875 C11.07066406 12.45847656 11.03585937 13.21773438 11 14 C10.01 14 9.02 14 8 14 C7.67 10.37 7.34 6.74 7 3 C5.68 2.67 4.36 2.34 3 2 C2.67 5.96 2.34 9.92 2 14 C1.34 14 0.68 14 0 14 C0 9.38 0 4.76 0 0 Z " fill="#E1DFF3" transform="translate(391,275)"/>
  <path d="M0 0 C3.63 0 7.26 0 11 0 C11 0.33 11 0.66 11 1 C8.03 1 5.06 1 2 1 C2 3.31 2 5.62 2 8 C4.64 8 7.28 8 10 8 C10 8.66 10 9.32 10 10 C7.36 10 4.72 10 2 10 C2 11.98 2 13.96 2 16 C4.97 16 7.94 16 11 16 C11 16.66 11 17.32 11 18 C7.37 18 3.74 18 0 18 C0 12.06 0 6.12 0 0 Z " fill="#FBFBFD" transform="translate(309,271)"/>
  <path d="M0 0 C3 1 3 1 4.1875 3.375 C5 6 5 6 5 9 C5.66 9 6.32 9 7 9 C7.99 6.03 8.98 3.06 10 0 C10.66 0 11.32 0 12 0 C10.17778624 6.61242722 7.94776396 12.80520671 5 19 C3.68 19 2.36 19 1 19 C1 18.34 1 17.68 1 17 C1.99 16.67 2.98 16.34 4 16 C2.84941444 10.60204011 1.57578241 5.29012667 0 0 Z " fill="#E9E7F6" transform="translate(361,275)"/>
  <path d="M0 0 C0.94875 0.04125 1.8975 0.0825 2.875 0.125 C3.535 1.445 4.195 2.765 4.875 4.125 C2.565 3.795 0.255 3.465 -2.125 3.125 C-2.125 3.785 -2.125 4.445 -2.125 5.125 C1.34 6.61 1.34 6.61 4.875 8.125 C4 13 4 13 2.875 14.125 C0.54202567 14.16592937 -1.79205225 14.16741723 -4.125 14.125 C-4.455 12.805 -4.785 11.485 -5.125 10.125 C-4.465 10.125 -3.805 10.125 -3.125 10.125 C-3.125 10.785 -3.125 11.445 -3.125 12.125 C-0.65233235 11.78055119 -0.65233235 11.78055119 1.875 11.125 C2.205 10.465 2.535 9.805 2.875 9.125 C0.565 8.465 -1.745 7.805 -4.125 7.125 C-4.75 4.75 -4.75 4.75 -5.125 2.125 C-3.125 0.125 -3.125 0.125 0 0 Z " fill="#E6E5F5" transform="translate(293.125,274.875)"/>
  <path d="M0 0 C4.55555556 0.55555556 4.55555556 0.55555556 6 2 C6.47058824 7.41176471 6.47058824 7.41176471 4.5 9.875 C3.7575 10.431875 3.7575 10.431875 3 11 C-0.875 9.125 -0.875 9.125 -2 8 C-2.1875 5.0625 -2.1875 5.0625 -2 2 C-1.34 1.34 -0.68 0.68 0 0 Z " fill="#EDECF8" transform="translate(438,179)"/>
  <path d="M0 0 C4.70588235 0.70588235 4.70588235 0.70588235 6 2 C6.125 5.5 6.125 5.5 6 9 C5 10 5 10 2.5625 10.1875 C0 10 0 10 -2 8 C-1.42307692 1.42307692 -1.42307692 1.42307692 0 0 Z " fill="#574CBE" transform="translate(379,277)"/>
  <path d="M0 0 C3 1 3 1 3.94921875 2.84765625 C4.6328125 4.8984375 5.31640625 6.94921875 6 9 C6.99 6.03 7.98 3.06 9 0 C9.99 0 10.98 0 12 0 C10.45730076 4.72065967 8.92205381 9.41664092 7 14 C6.01 14 5.02 14 4 14 C3.32739649 12.23141309 2.66211605 10.46003984 2 8.6875 C1.62875 7.70136719 1.2575 6.71523438 0.875 5.69921875 C0 3 0 3 0 0 Z " fill="#E5E3F4" transform="translate(323,275)"/>
  <path d="M0 0 C3.53571429 0.53571429 3.53571429 0.53571429 5 2 C5.125 5.5 5.125 5.5 5 9 C4 10 4 10 1.5 10.125 C-1 10 -1 10 -2 9 C-2.1875 5.5625 -2.1875 5.5625 -2 2 C-1.34 1.34 -0.68 0.68 0 0 Z " fill="#5044BB" transform="translate(233,277)"/>
  <path d="M0 0 C3.53571429 0.53571429 3.53571429 0.53571429 5 2 C5.125 5.5 5.125 5.5 5 9 C4 10 4 10 1.5 10.125 C-1 10 -1 10 -2 9 C-2.1875 5.5625 -2.1875 5.5625 -2 2 C-1.34 1.34 -0.68 0.68 0 0 Z " fill="#5146BB" transform="translate(218,277)"/>
  <path d="M0 0 C0.99 0 1.98 0 3 0 C4.0063655 2.43504509 5.00526413 4.87270864 6 7.3125 C6.28617188 8.00279297 6.57234375 8.69308594 6.8671875 9.40429688 C8.08910744 12.41545674 9 14.71886984 9 18 C8.01 17.67 7.02 17.34 6 17 C5.67 16.01 5.34 15.02 5 14 C3.865625 13.87625 2.73125 13.7525 1.5625 13.625 C-0.2009375 13.315625 -0.2009375 13.315625 -2 13 C-2.33 12.34 -2.66 11.68 -3 11 C-0.69 11 1.62 11 4 11 C3.525625 9.9275 3.05125 8.855 2.5625 7.75 C1.46233668 5.19160135 0.54832997 2.74164983 0 0 Z " fill="#F1F0F9" transform="translate(89,271)"/>
  <path d="M0 0 C2.64 0 5.28 0 8 0 C8 0.66 8 1.32 8 2 C6.68 2.33 5.36 2.66 4 3 C3.67 6.63 3.34 10.26 3 14 C2.01 14 1.02 14 0 14 C0 9.38 0 4.76 0 0 Z " fill="#D7D5EF" transform="translate(278,275)"/>
  <path d="M0 0 C2.875 -0.125 2.875 -0.125 6 0 C8 2 8 2 8.1953125 4.8203125 C8.16050781 6.45613281 8.16050781 6.45613281 8.125 8.125 C8.10695312 9.22070312 8.08890625 10.31640625 8.0703125 11.4453125 C8.04710937 12.28835938 8.02390625 13.13140625 8 14 C7.34 14 6.68 14 6 14 C5.06576355 10.98968256 4.95550089 10.13349732 6 7 C5.01 6.67 4.02 6.34 3 6 C3.99 6 4.98 6 6 6 C5.67 5.01 5.34 4.02 5 3 C2.69 3.33 0.38 3.66 -2 4 C-1.34 2.68 -0.68 1.36 0 0 Z " fill="#F3F2FA" transform="translate(148,275)"/>
  <path d="M0 0 C0.66 0 1.32 0 2 0 C2 0.99 2 1.98 2 3 C2.99 3 3.98 3 5 3 C5 3.66 5 4.32 5 5 C4.01 5 3.02 5 2 5 C2 8.3 2 11.6 2 15 C2.99 15 3.98 15 5 15 C5 15.66 5 16.32 5 17 C3.35 16.67 1.7 16.34 0 16 C0 12.37 0 8.74 0 5 C-0.66 5 -1.32 5 -2 5 C-2 4.34 -2 3.68 -2 3 C-1.34 3 -0.68 3 0 3 C0 2.01 0 1.02 0 0 Z " fill="#F8F7FC" transform="translate(161,272)"/>
  <path d="M0 0 C2.33333333 0 4.66666667 0 7 0 C7 0.66 7 1.32 7 2 C6.35546875 2.22429687 5.7109375 2.44859375 5.046875 2.6796875 C2.75611148 3.82889456 2.75611148 3.82889456 2.390625 6.3828125 C2.34421875 7.28773438 2.2978125 8.19265625 2.25 9.125 C2.19328125 10.03507812 2.1365625 10.94515625 2.078125 11.8828125 C2.03945313 12.93082031 2.03945313 12.93082031 2 14 C1.34 14 0.68 14 0 14 C0 9.38 0 4.76 0 0 Z " fill="#F9F8FC" transform="translate(352,275)"/>
  <path d="M0 0 C0.99 0.103125 1.98 0.20625 3 0.3125 C3.66 1.3025 4.32 2.2925 5 3.3125 C4.01 3.3125 3.02 3.3125 2 3.3125 C-1.43156089 3.82723413 -3.04076956 4.3396797 -6 6.3125 C-5.17886899 2.20684495 -4.47585821 0.46623523 0 0 Z " fill="#E8E7F6" transform="translate(411,274.6875)"/>
  <path d="M0 0 C0.99 1.485 0.99 1.485 2 3 C5.10494126 3.31845551 7.01726077 2.99424641 10 2 C10 2.99 10 3.98 10 5 C7.26094655 6.36952673 5.02912668 6.12621361 2 6 C1.34 5.67 0.68 5.34 0 5 C0 3.35 0 1.7 0 0 Z " fill="#E6E4F5" transform="translate(338,283)"/>
  <path d="M0 0 C1.65 0.33 3.3 0.66 5 1 C5.33 1.99 5.66 2.98 6 4 C3.36 4 0.72 4 -2 4 C-1.34 2.68 -0.68 1.36 0 0 Z " fill="#5B50BF" transform="translate(409,277)"/>
  <path d="M0 0 C1.9451 2.91765 2.45276317 4.62537285 3 8 C2.01 7.67 1.02 7.34 0 7 C-0.33 6.01 -0.66 5.02 -1 4 C-3.31 3.67 -5.62 3.34 -8 3 C-8 2.67 -8 2.34 -8 2 C-6.865625 1.855625 -5.73125 1.71125 -4.5625 1.5625 C-1.19222799 1.38828522 -1.19222799 1.38828522 0 0 Z " fill="#E3E1F4" transform="translate(95,281)"/>
  <path d="M0 0 C1.65 0.33 3.3 0.66 5 1 C5.33 1.99 5.66 2.98 6 4 C3.36 4 0.72 4 -2 4 C-1.34 2.68 -0.68 1.36 0 0 Z " fill="#584DBE" transform="translate(267,277)"/>
  <path d="M0 0 C2.5654594 2.5654594 2.54046087 4.47686668 3 8 C1.35 8 -0.3 8 -2 8 C-1.125 2.25 -1.125 2.25 0 0 Z " fill="#6358C2" transform="translate(90,274)"/>
  <path d="M0 0 C1.98 0 3.96 0 6 0 C5.67 1.32 5.34 2.64 5 4 C3.35 4 1.7 4 0 4 C0 2.68 0 1.36 0 0 Z " fill="#5A4EBF" transform="translate(148,283)"/>
  <path d="M0 0 C1.65 0.33 3.3 0.66 5 1 C5 1.99 5 2.98 5 4 C2.69 4 0.38 4 -2 4 C-1.34 2.68 -0.68 1.36 0 0 Z " fill="#554ABD" transform="translate(341,277)"/>
  <path d="M0 0 C3 1 3 1 4 3 C4.039992 4.99960012 4.04346799 7.00047242 4 9 C3.01 8.67 2.02 8.34 1 8 C-0.1875 4.4375 -0.1875 4.4375 -1 1 C-0.67 0.67 -0.34 0.34 0 0 Z " fill="#CAC6EA" transform="translate(237,276)"/>
  <path d="M0 0 C-0.66 1.32 -1.32 2.64 -2 4 C-4.31 4 -6.62 4 -9 4 C-9 3.34 -9 2.68 -9 2 C-2.25 0 -2.25 0 0 0 Z " fill="#E3E1F4" transform="translate(275,285)"/>
  <path d="M0 0 C0.33 0 0.66 0 1 0 C1.125 3.375 1.125 3.375 1 7 C-1 9 -1 9 -3.625 9.125 C-4.40875 9.08375 -5.1925 9.0425 -6 9 C-4.7934375 7.88625 -4.7934375 7.88625 -3.5625 6.75 C-1.23011409 4.24695171 -0.36465606 3.2819045 0 0 Z " fill="#F1F1F9" transform="translate(239,280)"/>
  <path d="M0 0 C0.99 0.33 1.98 0.66 3 1 C4.1875 4.5625 4.1875 4.5625 5 8 C4.01 7.67 3.02 7.34 2 7 C0.8125 3.4375 0.8125 3.4375 0 0 Z " fill="#DFDCF2" transform="translate(361,275)"/>
  <path d="M0 0 C1.125 1.625 1.125 1.625 2 4 C1.125 7.25 1.125 7.25 0 10 C-0.66 9.34 -1.32 8.68 -2 8 C-1.63723355 5.17042171 -0.90305236 2.70915709 0 0 Z " fill="#DFDDF2" transform="translate(88,272)"/>
</svg>